#N canvas 827 239 734 565 12;
#X obj 43 500 output~;
#X obj 43 439 lowpass~ 500 1;
#X obj 372 104 keyboard 15 70 4 2 0 0 empty empty;
#X obj 206 331 knob 50 0 127 0 0 empty empty #191919 #696969 #E1E1E1 1 0 0 0 1 270 0 0 0 empty empty 0 12 6 -15 0 1 0 0;
#X obj 127 388 * 10;
#X obj 386 599 output~;
#X obj 372 210 midi2freq;
#X obj 310 291 print;
#X obj 372 256 unpack f;
#X obj 622 557 scope~ 200 100 256 3 128 -1 1 0 0 0 0 225 225 225 25 25 25 105 105 105 0 empty;
#X obj 372 439 saw~;
#X obj 484 246 print BRUTE;
#X obj 454 210 unpack;
#X obj 372 48 notein;
#X obj 461 500 lowpass~ 500 1;
#X obj 441 340 knob 50 0 127 0 0 empty empty #191919 #696969 #E1E1E1 1 0 0 0 1 270 0 0 0 empty empty 0 12 6 -15 0 1 0 0;
#X obj 441 417 * 10;
#X obj 48 198 notein;
#N canvas 0 50 450 300 embeddedVoiceCloner 0;
#X obj 344 314 inlet;
#X obj 344 522 outlet~;
#X obj 344 405 mtof;
#X obj 344 444 osc~, f 5;
#X obj 344 365 unpack f f;
#X obj 344 482 *~ 0.0625;
#X connect 0 0 4 0;
#X connect 2 0 3 0;
#X connect 3 0 5 0;
#X connect 4 0 2 0;
#X connect 5 0 1 0;
#X restore 140 210 pd embeddedVoiceCloner;
#X obj 606 349 clone;
#X obj 58 331 saw~;
#X connect 1 0 0 0;
#X connect 1 0 0 1;
#X connect 2 0 6 0;
#X connect 2 0 12 0;
#X connect 3 0 4 0;
#X connect 4 0 1 1;
#X connect 6 0 8 0;
#X connect 8 0 10 0;
#X connect 8 0 7 0;
#X connect 10 0 14 0;
#X connect 12 1 11 0;
#X connect 13 0 2 0;
#X connect 13 1 2 1;
#X connect 14 0 5 0;
#X connect 14 0 5 1;
#X connect 14 0 9 0;
#X connect 15 0 16 0;
#X connect 16 0 14 1;
#X connect 17 0 20 0;
#X connect 20 0 1 0;
