#N canvas 827 239 590 543 12;
#X obj 0 0 cnv 15 589 542 empty empty empty 20 12 0 14 #89beb8 #5a5a5a 1;
#X obj 1218 24 cnv 15 304 261 empty empty LFO\ SECTION 20 12 0 14 #928b7f #5b5b5b 0;
#X obj 683 529 output~;
#X obj 872 465 scope~ 165 69 16 3 64 -2 2 0 0 0 0 225 225 225 25 25 25 105 105 105 0 empty;
#X obj 637 55 notein;
#N canvas 0 50 450 300 filter 1;
#X obj 523 255 inlet~;
#X obj 523 503 outlet~;
#X obj 523 468 lowpass~ 500 1;
#X obj 606 221 inlet LowpassValue;
#X obj 606 296 * 100;
#X obj 606 262 + 1;
#X connect 0 0 2 0;
#X connect 2 0 1 0;
#X connect 3 0 5 0;
#X connect 4 0 2 1;
#X connect 5 0 4 0;
#X restore 637 338 pd filter;
#X obj 85 354 knob 50 0 127 2 2.5 empty empty #89beb8 #968E82 #5A5A5A 1 0 0 0 1 270 0 0 127 empty empty 1 12 6 -15 0 1 0 0;
#X obj 1283 107 hv.lfo triangle;
#X obj 1283 221 send LFO_GLOBAL_FREQUENCE;
#X obj 637 231 voices 16;
#X obj 637 276 clone voicecloner 16;
#X obj 1283 181 + 1;
#X obj 1407 92 knob 50 0 0.1 0 0 empty empty #E3DFD9 #968E82 #5A5A5A 1 0 0 0 1 270 0 0 0 empty empty 0 12 6 -15 0 1 0 0;
#X obj 1407 170 print LFO Value;
#N canvas 0 50 450 300 noise 0;
#X obj 590 191 inlet;
#X obj 796 451 scope~ 150 70 16 3 64 -2 2 0 0 0 0 225 225 225 155 159 150 105 105 105 0 empty;
#X obj 622 494 outlet~;
#X obj 711 426 *~;
#X obj 652 277 != 0;
#X obj 669 313 * 0.01;
#X obj 622 373 noise~;
#X connect 0 0 4 0;
#X connect 3 0 1 0;
#X connect 3 0 2 0;
#X connect 4 0 5 0;
#X connect 5 0 3 1;
#X connect 6 0 3 0;
#X restore 784 357 pd noise;
#X obj 698 490 dac~;
#X obj 784 308 sig2float~;
#N canvas 0 50 450 300 flanger 0;
#X obj 460 406 inlet~;
#X obj 460 546 outlet~, f 14;
#X msg 694 471 1 0 0.3 0.4;
#X obj 521 354 1;
#X obj 569 354 0;
#X obj 617 354 0.3;
#X obj 664 354 0.4;
#X obj 521 416 pack f f f f;
#X obj 661 442 hv.flanger2~;
#X obj 241 353 flanger.m~;
#A saved 0.541894 12.5316 -0.072 1;
#A saved ratelearn notein 1;
#A saved depthlearn notein 1;
#A saved wetlearn notein 1;
#A saved coefflearn notein 1;
#X obj 461 472 flanger~ 0.3 1 0.1;
#X connect 0 0 10 0;
#X connect 3 0 7 0;
#X connect 4 0 7 1;
#X connect 5 0 7 2;
#X connect 6 0 7 3;
#X connect 10 0 1 0;
#X restore 667 385 pd flanger;
#X obj 1077 372 output~;
#X obj 1043 276 saw~ 400;
#X obj 1058 323 chorus~ 0.3 1 1;
#X obj 85 444 keyboard 15 70 4 2 0 0 empty empty;
#X obj 1283 145 * 0.03;
#X floatatom 253 181 4 0 0 0 - - - 16;
#X connect 4 0 21 0;
#X connect 4 1 21 1;
#X connect 5 0 17 0;
#X connect 6 0 5 1;
#X connect 7 0 22 0;
#X connect 9 0 10 0;
#X connect 10 0 16 0;
#X connect 10 0 3 0;
#X connect 10 0 5 0;
#X connect 11 0 8 0;
#X connect 12 0 13 0;
#X connect 14 0 15 0;
#X connect 14 0 15 1;
#X connect 16 0 14 0;
#X connect 17 0 15 0;
#X connect 17 0 15 1;
#X connect 19 0 20 0;
#X connect 20 0 18 0;
#X connect 21 0 9 0;
#X connect 22 0 11 0;
#X connect 23 0 7 0;
