#N canvas 827 239 734 565 12;
#X obj 318 103 inlet;
#X obj 318 457 outlet~;
#X obj 277 227 mtof;
#X obj 318 423 *~;
#X msg 259 167 Note;
#X msg 403 181 Velocité;
#X obj 403 337 adsr~ 17 10 1 48;
#X obj 395 118 receive LFO_GLOBAL_FREQUENCE;
#X obj 318 181 unpack f f;
#X obj 376 216 > 0;
#X obj 376 250 * 127;
#X obj 277 269 *~;
#X obj 277 330 bl.saw2~;
#X obj 376 380 *~ 0.2;
#X connect 0 0 8 0;
#X connect 2 0 11 0;
#X connect 3 0 1 0;
#X connect 6 0 13 0;
#X connect 7 0 11 1;
#X connect 8 0 2 0;
#X connect 8 1 9 0;
#X connect 9 0 10 0;
#X connect 10 0 6 0;
#X connect 11 0 12 0;
#X connect 12 0 3 0;
#X connect 13 0 3 1;
